<?xml version="1.0" ?>
<svg viewBox="0 0 512 512" 
width = "90"
height = "90"
xmlns="http://www.w3.org/2000/svg"
class = "svg">
<link xmlns="http://www.w3.org/1999/xhtml" rel="stylesheet" href="svg.css" type="text/css"/>

<title/><g id="Tower_of_london"><path d="M382.89,509.78H509.78V473.53H473.53V147.24h18.13v-7.19a38.86,38.86,0,0,0-16.29-31.63L438.41,82V62.52a18.12,18.12,0,0,0,0-30V2.22H418V32.55a18.12,18.12,0,0,0,0,30V82l-37,26.41a38.86,38.86,0,0,0-16.29,31.63v7.19h18.13v54.38H346.64v27.19H328.51V201.62H292.25v27.19H274.13V201.62H237.87v27.19H219.75V201.62H183.49v27.19H165.36V201.62H129.11V147.24h18.13v-7.19A38.86,38.86,0,0,0,131,108.42L94,82V62.52a18.12,18.12,0,0,0,0-30V2.22H73.59V32.55a18.12,18.12,0,0,0,0,30V82l-37,26.41a38.86,38.86,0,0,0-16.29,31.63v7.19H38.47V473.53H2.22v36.25H382.89ZM129.11,491.66V473.53h18.13v-68a13.6,13.6,0,1,1,27.19,0v68H382.89v18.13ZM92.85,283.19v18.13H74.73V283.19ZM74.73,201.62V183.49H92.85v18.13Zm362.54,81.57v18.13H419.15V283.19Zm-18.12-81.57V183.49h18.12v18.13ZM364.76,405.55v31.69H337.57V405.55a13.6,13.6,0,1,1,27.19,0Zm-63.44,0v31.69H274.13V405.55a13.6,13.6,0,1,1,27.19,0Zm-63.45,0v31.69H210.68V405.55a13.6,13.6,0,1,1,27.19,0Zm99.7-135.92a13.6,13.6,0,1,1,27.19,0v31.69H337.57Zm-63.44,0a13.6,13.6,0,1,1,27.19,0v31.69H274.13Zm-63.45,0a13.6,13.6,0,1,1,27.19,0v31.69H210.68Zm-63.44,0a13.6,13.6,0,1,1,27.19,0v31.69H147.24Z"
class = "icon"/></g></svg>
